<svg id="Capa_1" data-name="Capa 1" xmlns="http://www.w3.org/2000/svg" viewBox="0 0 451.79 228.75"><defs><style>.cls-1{font-size:41.78px;font-family:Rajdhani-SemiBold, Rajdhani;font-weight:700;}.cls-1,.cls-6{fill:#13b6e1;}.cls-2,.cls-4{fill:#084a59;}.cls-3,.cls-7{fill:#fff;}.cls-4{letter-spacing:0em;}.cls-5{fill:#f3d654;letter-spacing:0em;}.cls-7{fill-rule:evenodd;}</style></defs><title>imagotipo-prueba</title><text class="cls-1" transform="translate(0 214.79) scale(1.05 1)">Juanni<tspan class="cls-2" x="117.37" y="0"> </tspan><tspan class="cls-3" x="127.31" y="0">Financial</tspan><tspan class="cls-4" x="278.39" y="0"> </tspan><tspan class="cls-5" x="288.34" y="0">Services</tspan></text><path class="cls-6" d="M516,182.26c3-9-1.85-16.34-10.75-16.34H346.3c-8.9,0-18.63,7.35-21.62,16.34l-1.74,5.23H285.4l-1.6,5H512.56Z" transform="translate(-181.35 -165.92)"/><path class="cls-6" d="M345.28,248H494.09l10-30H230l-1.6,5H485.84l-1.6,5H309.51l-14.74,44.31c-3,9,1.85,16.34,10.75,16.34h24.26Z" transform="translate(-181.35 -165.92)"/><path class="cls-7" d="M317.2,310H491.29c9.75,0,20.41-8.05,23.69-17.9l32.77-98.47c3.28-9.84-2-17.9-11.77-17.9h-5.6l-31,93.17c-4.87,14.62-20.08,26.55-35.69,26.55H304.62C303.44,303.69,308.58,310,317.2,310Z" transform="translate(-181.35 -165.92)"/></svg>