<svg id="Capa_1" data-name="Capa 1" xmlns="http://www.w3.org/2000/svg" viewBox="0 0 569.02 288.1"><defs><style>.cls-1{font-size:52.62px;font-family:Rajdhani-SemiBold, Rajdhani;font-weight:700;}.cls-1,.cls-4{fill:#13b6e1;}.cls-2,.cls-5{fill:#084a59;}.cls-3{fill:#f3d654;letter-spacing:0em;}.cls-5{fill-rule:evenodd;}</style></defs><title>jfs-imagotipo</title><text class="cls-1" transform="translate(0 270.53) scale(1.05 1)">Juanni<tspan class="cls-2" x="147.82" y="0" xml:space="preserve"> Financial </tspan><tspan class="cls-3" x="363.15" y="0">Services</tspan></text><path class="cls-4" d="M551.28,162.62C555,151.3,549,142,537.74,142H337.6c-11.21,0-23.47,9.26-27.23,20.58l-2.19,6.59H260.9l-2,6.25H547Z" transform="translate(-129.85 -142.04)"/><path class="cls-4" d="M336.32,245.36H523.74l12.59-37.85H191.18l-2,6.25H513.35l-2,6.25H291.27l-18.57,55.8c-3.77,11.32,2.32,20.58,13.54,20.58h30.56Z" transform="translate(-129.85 -142.04)"/><path class="cls-5" d="M301,323.48H520.22c12.28,0,25.71-10.14,29.83-22.54l41.27-124c4.13-12.4-2.55-22.54-14.83-22.54h-7L530.39,271.73c-6.13,18.42-25.29,33.44-44.95,33.44H285.11C283.63,315.56,290.1,323.48,301,323.48Z" transform="translate(-129.85 -142.04)"/></svg>