<svg id="Capa_1" data-name="Capa 1" xmlns="http://www.w3.org/2000/svg" viewBox="0 0 403.38 181.44"><defs><style>.cls-1{fill:#13b6e1;}.cls-2{fill:#084a59;fill-rule:evenodd;}</style></defs><title>isotipo-jfs</title><path class="cls-1" d="M551.28,200.38C555,189.06,549,179.8,537.74,179.8H337.6c-11.21,0-23.47,9.26-27.23,20.58L308.18,207H260.9l-2,6.25H547Z" transform="translate(-189.17 -179.8)"/><path class="cls-1" d="M336.32,283.12H523.74l12.59-37.85H191.18l-2,6.25H513.35l-2,6.25H291.27l-18.57,55.8c-3.77,11.32,2.32,20.58,13.54,20.58h30.56Z" transform="translate(-189.17 -179.8)"/><path class="cls-2" d="M301,361.24H520.22c12.28,0,25.71-10.14,29.83-22.54l41.27-124c4.13-12.4-2.55-22.54-14.83-22.54h-7L530.39,309.49c-6.13,18.42-25.29,33.44-44.95,33.44H285.11C283.63,353.32,290.1,361.24,301,361.24Z" transform="translate(-189.17 -179.8)"/></svg>