<?xml version="1.0" encoding="utf-8"?>
<!-- Generator: Adobe Illustrator 21.0.0, SVG Export Plug-In . SVG Version: 6.00 Build 0)  -->
<svg version="1.1" id="Capa_1" xmlns="http://www.w3.org/2000/svg" xmlns:xlink="http://www.w3.org/1999/xlink" x="0px" y="0px"
	 viewBox="0 0 403.4 181.4" style="enable-background:new 0 0 403.4 181.4;" xml:space="preserve">
<style type="text/css">
	.st0{fill:#13B6E1;}
</style>
<title>isotipo-jfs</title>
<path class="st0" d="M362.1,20.6C365.8,9.3,359.8,0,348.6,0H148.4c-11.2,0-23.5,9.3-27.2,20.6l-2.2,6.6H71.7l-2,6.3h288.1
	L362.1,20.6z"/>
<path class="st0" d="M147.2,103.3h187.4l12.6-37.9H2l-2,6.3h324.2l-2,6.3H102.1l-18.6,55.8c-3.8,11.3,2.3,20.6,13.5,20.6h30.6
	L147.2,103.3z"/>
<path class="st0" d="M111.8,181.4H331c12.3,0,25.7-10.1,29.8-22.5l41.3-124c4.1-12.4-2.5-22.5-14.8-22.5h-7l-39.1,117.3
	c-6.1,18.4-25.3,33.4-45,33.4H95.9C94.5,173.5,100.9,181.4,111.8,181.4z"/>
</svg>
