<?xml version="1.0" encoding="utf-8"?>
<!-- Generator: Adobe Illustrator 21.0.0, SVG Export Plug-In . SVG Version: 6.00 Build 0)  -->
<svg version="1.1" id="Capa_1" xmlns="http://www.w3.org/2000/svg" xmlns:xlink="http://www.w3.org/1999/xlink" x="0px" y="0px"
	 viewBox="0 0 24 24" style="enable-background:new 0 0 24 24;" xml:space="preserve">
<style type="text/css">
	.st0{fill:#F3D654;}
</style>
<path class="st0" d="M7,22h10c0.2,0,0.5-0.1,0.7-0.2c0.2-0.2,0.3-0.4,0.3-0.6L19.9,8H21V6h-1.4l-1.7-3.4c-0.1-0.2-0.2-0.3-0.4-0.4
	C17.4,2.1,17.2,2,17,2H7C6.6,2,6.3,2.2,6.1,2.6L4.4,6H3v2h1.1L6,21.1c0,0.2,0.2,0.5,0.3,0.6C6.5,21.9,6.8,22,7,22L7,22z M17.4,11
	H6.6L6.2,8h11.7L17.4,11z M7.9,20l-0.4-3h9.1l-0.4,3H7.9L7.9,20z M7.6,4h8.8l1,2H6.6L7.6,4z"/>
</svg>
